<mxfile host="app.diagrams.net" modified="2023-06-01T00:44:13.207Z" agent="Mozilla/5.0 (Windows NT 10.0; Win64; x64) AppleWebKit/537.36 (KHTML, like Gecko) Chrome/113.0.0.0 Safari/537.36" etag="JCfYfMgHdlxo9yXDIB4J" version="21.3.5" type="device">
  <diagram name="페이지-1" id="TkquUMKkqEkAgC5XKiAJ">
    <mxGraphModel dx="1195" dy="657" grid="1" gridSize="10" guides="1" tooltips="1" connect="1" arrows="1" fold="1" page="1" pageScale="1" pageWidth="4681" pageHeight="3300" math="0" shadow="0">
      <root>
        <mxCell id="0" />
        <mxCell id="1" parent="0" />
        <mxCell id="kF4KeOeYaR07XlUCmCsG-22" style="edgeStyle=orthogonalEdgeStyle;rounded=0;orthogonalLoop=1;jettySize=auto;html=1;entryX=0;entryY=0.5;entryDx=0;entryDy=0;exitX=0.5;exitY=0.5;exitDx=0;exitDy=0;exitPerimeter=0;" edge="1" parent="1" source="kF4KeOeYaR07XlUCmCsG-1" target="kF4KeOeYaR07XlUCmCsG-3">
          <mxGeometry relative="1" as="geometry" />
        </mxCell>
        <mxCell id="kF4KeOeYaR07XlUCmCsG-1" value="유저" style="shape=umlActor;verticalLabelPosition=bottom;verticalAlign=top;html=1;outlineConnect=0;" vertex="1" parent="1">
          <mxGeometry x="510" y="290" width="90" height="120" as="geometry" />
        </mxCell>
        <mxCell id="kF4KeOeYaR07XlUCmCsG-8" style="rounded=0;orthogonalLoop=1;jettySize=auto;html=1;entryX=0.5;entryY=0;entryDx=0;entryDy=0;exitX=0.5;exitY=1;exitDx=0;exitDy=0;" edge="1" parent="1" source="kF4KeOeYaR07XlUCmCsG-3" target="kF4KeOeYaR07XlUCmCsG-5">
          <mxGeometry relative="1" as="geometry" />
        </mxCell>
        <mxCell id="kF4KeOeYaR07XlUCmCsG-9" style="rounded=0;orthogonalLoop=1;jettySize=auto;html=1;entryX=0.5;entryY=0;entryDx=0;entryDy=0;exitX=0.5;exitY=1;exitDx=0;exitDy=0;" edge="1" parent="1" source="kF4KeOeYaR07XlUCmCsG-3" target="kF4KeOeYaR07XlUCmCsG-6">
          <mxGeometry relative="1" as="geometry" />
        </mxCell>
        <mxCell id="kF4KeOeYaR07XlUCmCsG-11" style="rounded=0;orthogonalLoop=1;jettySize=auto;html=1;entryX=0.5;entryY=0;entryDx=0;entryDy=0;exitX=0.5;exitY=1;exitDx=0;exitDy=0;" edge="1" parent="1" source="kF4KeOeYaR07XlUCmCsG-3" target="kF4KeOeYaR07XlUCmCsG-7">
          <mxGeometry relative="1" as="geometry" />
        </mxCell>
        <mxCell id="kF4KeOeYaR07XlUCmCsG-21" style="edgeStyle=orthogonalEdgeStyle;rounded=0;orthogonalLoop=1;jettySize=auto;html=1;entryX=0;entryY=0.5;entryDx=0;entryDy=0;exitX=1;exitY=0.5;exitDx=0;exitDy=0;" edge="1" parent="1" source="kF4KeOeYaR07XlUCmCsG-3" target="kF4KeOeYaR07XlUCmCsG-20">
          <mxGeometry relative="1" as="geometry" />
        </mxCell>
        <mxCell id="kF4KeOeYaR07XlUCmCsG-3" value="로그인하기" style="ellipse;whiteSpace=wrap;html=1;" vertex="1" parent="1">
          <mxGeometry x="720" y="320" width="120" height="60" as="geometry" />
        </mxCell>
        <mxCell id="kF4KeOeYaR07XlUCmCsG-15" style="edgeStyle=orthogonalEdgeStyle;rounded=0;orthogonalLoop=1;jettySize=auto;html=1;entryX=0.5;entryY=0;entryDx=0;entryDy=0;exitX=0.5;exitY=1;exitDx=0;exitDy=0;" edge="1" parent="1" source="kF4KeOeYaR07XlUCmCsG-5" target="kF4KeOeYaR07XlUCmCsG-12">
          <mxGeometry relative="1" as="geometry" />
        </mxCell>
        <mxCell id="kF4KeOeYaR07XlUCmCsG-5" value="회원가입하기" style="ellipse;whiteSpace=wrap;html=1;" vertex="1" parent="1">
          <mxGeometry x="630" y="420" width="120" height="60" as="geometry" />
        </mxCell>
        <mxCell id="kF4KeOeYaR07XlUCmCsG-10" style="rounded=0;orthogonalLoop=1;jettySize=auto;html=1;entryX=0.5;entryY=0;entryDx=0;entryDy=0;exitX=0.5;exitY=1;exitDx=0;exitDy=0;" edge="1" parent="1" source="kF4KeOeYaR07XlUCmCsG-6" target="kF4KeOeYaR07XlUCmCsG-7">
          <mxGeometry relative="1" as="geometry" />
        </mxCell>
        <mxCell id="kF4KeOeYaR07XlUCmCsG-25" style="rounded=0;orthogonalLoop=1;jettySize=auto;html=1;entryX=0;entryY=0.5;entryDx=0;entryDy=0;" edge="1" parent="1" source="kF4KeOeYaR07XlUCmCsG-6" target="kF4KeOeYaR07XlUCmCsG-18">
          <mxGeometry relative="1" as="geometry" />
        </mxCell>
        <mxCell id="kF4KeOeYaR07XlUCmCsG-6" value="아이디찾기" style="ellipse;whiteSpace=wrap;html=1;" vertex="1" parent="1">
          <mxGeometry x="850" y="420" width="120" height="60" as="geometry" />
        </mxCell>
        <mxCell id="kF4KeOeYaR07XlUCmCsG-24" style="edgeStyle=orthogonalEdgeStyle;rounded=0;orthogonalLoop=1;jettySize=auto;html=1;entryX=0.5;entryY=1;entryDx=0;entryDy=0;" edge="1" parent="1" source="kF4KeOeYaR07XlUCmCsG-7" target="kF4KeOeYaR07XlUCmCsG-18">
          <mxGeometry relative="1" as="geometry" />
        </mxCell>
        <mxCell id="kF4KeOeYaR07XlUCmCsG-7" value="비밀번호찾기" style="ellipse;whiteSpace=wrap;html=1;" vertex="1" parent="1">
          <mxGeometry x="720" y="530" width="120" height="60" as="geometry" />
        </mxCell>
        <mxCell id="kF4KeOeYaR07XlUCmCsG-16" style="edgeStyle=orthogonalEdgeStyle;rounded=0;orthogonalLoop=1;jettySize=auto;html=1;entryX=0;entryY=0.5;entryDx=0;entryDy=0;" edge="1" parent="1" source="kF4KeOeYaR07XlUCmCsG-12" target="kF4KeOeYaR07XlUCmCsG-14">
          <mxGeometry relative="1" as="geometry" />
        </mxCell>
        <mxCell id="kF4KeOeYaR07XlUCmCsG-17" value="" style="edgeStyle=orthogonalEdgeStyle;rounded=0;orthogonalLoop=1;jettySize=auto;html=1;exitX=1;exitY=0.5;exitDx=0;exitDy=0;" edge="1" parent="1" source="kF4KeOeYaR07XlUCmCsG-12" target="kF4KeOeYaR07XlUCmCsG-14">
          <mxGeometry relative="1" as="geometry" />
        </mxCell>
        <mxCell id="kF4KeOeYaR07XlUCmCsG-12" value="유효성검사하기" style="ellipse;whiteSpace=wrap;html=1;" vertex="1" parent="1">
          <mxGeometry x="630" y="610" width="120" height="60" as="geometry" />
        </mxCell>
        <mxCell id="kF4KeOeYaR07XlUCmCsG-13" value="&lt;h1&gt;유효성검사&lt;/h1&gt;&lt;p&gt;이메일 중복 검사&lt;/p&gt;&lt;p&gt;이메일 형식 검사&lt;/p&gt;&lt;p&gt;비밀번호 적합성 검사&lt;/p&gt;" style="text;html=1;strokeColor=none;fillColor=none;spacing=5;spacingTop=-20;whiteSpace=wrap;overflow=hidden;rounded=0;" vertex="1" parent="1">
          <mxGeometry x="620" y="690" width="140" height="120" as="geometry" />
        </mxCell>
        <mxCell id="kF4KeOeYaR07XlUCmCsG-26" style="edgeStyle=orthogonalEdgeStyle;rounded=0;orthogonalLoop=1;jettySize=auto;html=1;entryX=0;entryY=0.5;entryDx=0;entryDy=0;" edge="1" parent="1" source="kF4KeOeYaR07XlUCmCsG-14" target="kF4KeOeYaR07XlUCmCsG-18">
          <mxGeometry relative="1" as="geometry" />
        </mxCell>
        <mxCell id="kF4KeOeYaR07XlUCmCsG-14" value="회원정보 저장하기" style="ellipse;whiteSpace=wrap;html=1;" vertex="1" parent="1">
          <mxGeometry x="830" y="610" width="120" height="60" as="geometry" />
        </mxCell>
        <mxCell id="kF4KeOeYaR07XlUCmCsG-18" value="회원정보 Table" style="shape=internalStorage;whiteSpace=wrap;html=1;backgroundOutline=1;" vertex="1" parent="1">
          <mxGeometry x="1150" y="410" width="130" height="80" as="geometry" />
        </mxCell>
        <mxCell id="kF4KeOeYaR07XlUCmCsG-23" style="edgeStyle=orthogonalEdgeStyle;rounded=0;orthogonalLoop=1;jettySize=auto;html=1;entryX=0.5;entryY=0;entryDx=0;entryDy=0;exitX=1;exitY=0.5;exitDx=0;exitDy=0;" edge="1" parent="1" source="kF4KeOeYaR07XlUCmCsG-20" target="kF4KeOeYaR07XlUCmCsG-18">
          <mxGeometry relative="1" as="geometry" />
        </mxCell>
        <mxCell id="kF4KeOeYaR07XlUCmCsG-20" value="회원정보 조회&lt;br&gt;로그인 승인하기" style="ellipse;whiteSpace=wrap;html=1;" vertex="1" parent="1">
          <mxGeometry x="980" y="320" width="120" height="60" as="geometry" />
        </mxCell>
      </root>
    </mxGraphModel>
  </diagram>
</mxfile>
